<?xml version="1.0" encoding="utf-8"?>
<!-- Generator: Adobe Illustrator 26.0.3, SVG Export Plug-In . SVG Version: 6.00 Build 0)  -->
<svg version="1.1" id="Layer_1" xmlns="http://www.w3.org/2000/svg" xmlns:xlink="http://www.w3.org/1999/xlink" x="0px" y="0px"
	 viewBox="0 0 1920 1080" style="enable-background:new 0 0 1920 1080;" xml:space="preserve">
<style type="text/css">
	.st0{fill:#41587D;}
	.st1{fill:#032152;}
	.st2{fill:#052353;}
	.st3{fill:#052252;}
	.st4{fill:#316197;}
	.st5{fill:#356498;}
	.st6{fill:#306196;}
	.st7{fill:#336398;}
</style>
<g>
	<path class="st0" d="M650.2,1126.81c0.33,2.04,0.95,4.09,0.95,6.13c0.07,71.24,0.08,142.48,0.1,213.71
		c-0.35,0.05-0.7,0.1-1.05,0.16C650.2,1273.48,650.2,1200.14,650.2,1126.81z"/>
	<g>
		<path class="st1" d="M727.2,662.81c4.92,1,9.87,1.83,14.74,3.02c20.57,4.99,38.38,14.4,49.69,33.1
			c19.33,31.98,4.67,73.62-30.25,86.69c-0.9,0.34-1.77,0.75-3.43,1.45c18.62,9.07,26,25.7,31.62,43.3
			c6.4,20.03,12.15,40.26,18.2,60.44c-10.07,0-20.89,0.12-31.69-0.16c-1.33-0.03-3.34-2.01-3.8-3.47
			c-4.18-13.12-7.73-26.44-12.16-39.47c-4.15-12.22-8.88-24.28-13.91-36.17c-1.56-3.68-4.69-6.85-7.59-9.77
			c-4.17-4.21-8.93-6.57-15.48-6.35c-8.7,0.29-17.46-1.08-26.46-1.76c4.22-13.45,15.13-22,27.99-22.84
			c22.71-1.48,40.67-21.29,39.68-43.76c-0.7-15.82-13.39-30.53-31.27-36.26c-13.22-4.23-26.67-2.63-40.09-1.48
			c-2.79,0.24-5.54,0.89-8.58,1.4c0,66.72,0,133.15,0,199.95c-11.27,0-22.21,0-33.15,0c-0.02-71.24-0.03-142.48-0.1-213.71
			c0-2.04-0.62-4.09-0.95-6.13c0-0.33,0-0.67,0-1c13.15-1.84,26.29-3.71,39.45-5.51c4.17-0.57,8.37-0.99,12.55-1.49
			C710.53,662.81,718.87,662.81,727.2,662.81z"/>
		<path class="st2" d="M882.2,893.81c-0.8-0.43-1.55-1.04-2.4-1.26c-32.24-7.98-50.5-29.42-57.34-60.97
			c-4.65-21.45-3.51-42.84,6.38-62.89c13.07-26.47,35.47-38.52,64.25-40.06c24.77-1.33,44.33,7.92,56.84,29.61
			c9.94,17.25,10.07,35.82,4.41,54.56c-0.31,1.03-1.89,2.41-2.88,2.41c-28.81,0.08-57.63,0.01-86.44-0.05
			c-0.11,0-0.21-0.22-0.32-0.33c3.99-14.5,13.01-21.55,27.56-21.56c11.11,0,22.22,0,33.2,0c2.87-14.63-3.94-29.53-16.41-36.72
			c-11.33-6.53-27.92-4.05-38.94,5.77c-8.3,7.39-12.91,16.78-14.98,27.53c-3.02,15.62-2.84,31.12,2.58,46.25
			c8.69,24.3,28.46,36.46,53.88,32.14c11.19-1.9,22.03-5.85,33.6-9.02c2.46,6.29,5.32,13.63,8.29,21.24
			c-12.18,6.54-24.89,10.53-38.33,12.34c-1.01,0.14-1.97,0.65-2.96,0.99C902.2,893.81,892.2,893.81,882.2,893.81z"/>
		<path class="st3" d="M1044.2,893.81c-2.43-0.78-4.85-1.64-7.31-2.32c-31.01-8.55-47.84-29.97-53.5-60.57
			c-3.81-20.62-2.74-41.19,6.87-60.43c14.31-28.68,38.15-41.85,69.72-41.94c12.38-0.03,24.45,1.95,36.64,6.38
			c-2.7,7.67-5.31,15.09-7.8,22.18c-8.66-1.16-16.96-2.81-25.34-3.29c-20.09-1.15-34.34,8.03-41.32,26.91
			c-7.41,20.05-7.48,40.5-0.17,60.58c8.17,22.43,26.68,31.8,50.26,25.94c6.58-1.64,12.96-4.11,20.09-6.41
			c2.78,7.19,5.68,14.7,9.1,23.58c-9.99,2.86-19.65,5.62-29.3,8.41c-0.69,0.2-1.3,0.65-1.95,0.98
			C1061.53,893.81,1052.87,893.81,1044.2,893.81z"/>
		<path class="st4" d="M1331.2,693.81c-4.38,5.87-8.84,11.36-17.02,12.26c-11.32,1.25-20.84-4.75-23.38-15.36
			c-2.49-10.35,3.14-21.22,12.78-24.68c10.71-3.84,21.8,0.88,26.6,11.29c0.25,0.54,0.68,0.99,1.03,1.49
			C1331.2,683.81,1331.2,688.81,1331.2,693.81z"/>
		<path class="st5" d="M1261.12,667.64c0,8.3,0,16.39,0,24.91c-32,0-63.74,0-96.18,0c0,66.23,0,132.05,0,198.07
			c-11.64,0-22.59,0-33.93,0c0-74.21,0-148.39,0-222.98C1174.18,667.64,1217.37,667.64,1261.12,667.64z"/>
		<path class="st6" d="M1327.69,890.58c-11.28,0-22.22,0-33.4,0c0-52.92,0-105.62,0-158.54c11.18,0,22.11,0,33.4,0
			C1327.69,784.77,1327.69,837.47,1327.69,890.58z"/>
		<path class="st7" d="M1250.82,761.68c0,8.07,0,15.83,0,23.86c-24.78,0-49.34,0-73.88,0c1.19-10.89,11.87-23.15,22.63-23.65
			C1216.45,761.09,1233.4,761.68,1250.82,761.68z"/>
	</g>
</g>
</svg>
